<?xml version="1.0" standalone="no"?><!DOCTYPE svg PUBLIC "-//W3C//DTD SVG 1.1//EN" "http://www.w3.org/Graphics/SVG/1.1/DTD/svg11.dtd"><svg t="1520505944840" class="icon" style="" viewBox="0 0 1024 1024" version="1.1" xmlns="http://www.w3.org/2000/svg" p-id="15967" xmlns:xlink="http://www.w3.org/1999/xlink" width="200" height="200"><defs><style type="text/css"></style></defs><path d="M840.922 582.988c-54.18 78.902-128.655 173.669-193.672 229.631-47.14 40.567-134.268 103.353-202.895 91.854-176.808-29.624-139.159-462.611-258.237-560.287-54.456-15.788-80.715 67.708-110.663 18.367-47.050-39.166 45.341-107.56 92.219-146.96 57.967-48.7 126.31-118.070 202.899-87.923 149.143 58.722 42.234 414.633 184.45 492.067 73.493-58.95 155.85-156.393 138.333-275.553-13.921-39.771-81.258-27.141-119.888-18.368-1.977-181.72 357.647-321.016 387.348-73.474 16.136 151.538-119.894 330.644-119.894 330.644z" p-id="15968" fill="#f7b514"></path></svg>